<?xml version="1.0" standalone="no"?>
<!DOCTYPE svg PUBLIC "-//W3C//DTD SVG 20010904//EN"
 "http://www.w3.org/TR/2001/REC-SVG-20010904/DTD/svg10.dtd">
<svg version="1.0" xmlns="http://www.w3.org/2000/svg"
 width="394.000000pt" height="394.000000pt" viewBox="0 0 394.000000 394.000000"
 preserveAspectRatio="xMidYMid meet">
<metadata>
Created by potrace 1.11, written by Peter Selinger 2001-2013
</metadata>
<g transform="translate(0.000000,394.000000) scale(0.100000,-0.100000)"
fill="#000000" stroke="none">
<path d="M1937 3905 c-10 -14 -24 -25 -32 -25 -8 0 -15 -4 -15 -9 0 -5 -12
-14 -27 -20 -16 -6 -41 -19 -58 -29 -16 -9 -64 -37 -105 -60 -41 -23 -84 -48
-95 -55 -101 -62 -126 -77 -131 -77 -2 0 -70 -38 -150 -85 -80 -47 -146 -85
-148 -85 -2 0 -51 -29 -110 -65 -58 -36 -108 -65 -111 -65 -6 0 -439 -249
-540 -311 -22 -14 -51 -30 -65 -37 -46 -23 -70 -39 -66 -43 6 -6 6 -200 0
-1131 l-5 -808 55 -35 c53 -33 228 -135 644 -374 112 -64 215 -123 230 -132
15 -9 47 -27 72 -41 25 -14 68 -39 95 -56 58 -35 90 -53 246 -141 63 -36 173
-99 244 -142 l130 -78 25 23 c14 12 55 41 92 64 67 42 535 313 658 382 54 30
134 77 279 165 48 29 137 79 183 103 88 46 248 141 338 201 67 44 86 63 92 88
5 17 7 460 6 983 l-3 952 -40 16 c-22 9 -94 47 -160 86 -66 38 -302 173 -525
301 -344 197 -469 270 -560 325 -8 5 -46 25 -85 45 -38 21 -72 41 -75 45 -5 7
-148 90 -156 90 -2 0 -26 14 -52 30 -27 17 -51 30 -53 30 -2 0 -12 -12 -22
-25z"/>
</g>
</svg>
